# xmcd
#
# Track frame offsets:
#	150
#	14672
#	35045
#
# Disc length: 730 seconds
#
# Revision: 0
# Processed by: cddbd v1.4PL0 Copyright (c) Steve Scherf et al.
# Submitted via: dBpowerAMP V4.0
#
DISCID=2202d803
DTITLE=McAlmont, David - Look At Yourself
DYEAR=1997
DGENRE=Soul
TTITLE0=Look At Yourself (Album Version)
TTITLE1=Unforgiven
TTITLE2=I'm In Love Again
EXTD=
EXTT0=
EXTT1=
EXTT2=
PLAYORDER=
